<svg width="547" height="547" viewBox="0 0 547 547" fill="none" xmlns="http://www.w3.org/2000/svg">
<g clip-path="url(#clip0_1335_276)">
<path d="M273.628 0.62793L546.628 273.628L273.628 546.628L0.628047 273.628L273.628 0.62793Z" fill="black"/>
<path d="M145.006 286.586C144.272 288.606 146.108 293.562 150.606 301.09C159.326 315.777 173.463 325.691 193.383 331.108C200.36 333.035 203.206 333.311 220.923 333.311C239.649 333.311 240.842 333.219 244.973 331.2C252.133 327.711 251.675 322.111 243.78 317.246C241.393 315.777 234.783 309.81 229.001 304.027C218.627 293.471 215.231 291.359 213.946 294.756C213.67 295.49 215.139 300.171 217.159 305.221C219.27 310.269 220.923 314.951 220.923 315.685C220.923 318.899 206.234 318.347 190.17 314.4C175.299 310.821 161.254 301.64 152.534 289.707C149.045 285.025 146.108 283.74 145.006 286.586Z" fill="white"/>
<path d="M183.928 275.57C186.131 275.937 187.416 275.662 189.252 274.285C193.658 270.797 196.137 273.183 196.137 280.986C196.137 283.006 196.596 286.219 197.147 288.146C197.697 290.074 197.789 292.828 197.514 294.297C196.413 299.529 187.508 298.612 182 292.828C179.155 289.89 174.381 280.986 174.106 278.233C173.555 273.55 174.014 273.459 183.928 275.57Z" fill="white"/>
<path d="M201.645 184.508C197.514 186.711 174.932 193.504 154.37 198.828C140.416 202.408 139.223 202.959 139.223 205.254C139.223 206.63 140.508 207.732 144.088 209.385C149.872 212.138 150.422 212.138 157.123 209.844C160.061 208.834 163.182 208.007 164.009 208.007C166.212 208.007 166.762 210.669 165.568 215.81C165.011 218.192 164.761 219.259 164.109 219.644C163.58 219.956 162.786 219.82 161.349 219.574L161.346 219.574C160.045 219.314 157.962 219.008 156.008 218.721L156.004 218.72L155.997 218.719C155.197 218.602 154.419 218.487 153.727 218.38C149.78 217.922 149.504 218.013 149.137 220.033C148.953 221.869 149.872 222.878 154.37 225.816C157.398 227.744 160.061 229.488 160.245 229.672C161.621 230.865 148.219 253.723 139.315 265.38C133.164 273.367 132.522 275.478 136.01 276.121C138.672 276.672 144.822 271.806 155.104 260.974C160.795 254.916 172.545 239.678 173.463 237.107C173.646 236.465 175.391 236.74 178.696 238.117C186.957 241.514 190.63 240.779 190.63 235.547C190.63 231.416 187.508 226.55 183.744 224.531C182.184 223.797 180.807 223.062 180.715 222.97C180.532 222.878 181.174 220.492 182.276 217.646C184.754 211.129 184.663 210.119 182 206.08L179.705 202.775L191.364 199.287C197.789 197.359 203.756 195.615 204.766 195.34C206.326 194.881 206.418 195.248 205.867 199.379C204.123 211.68 197.422 237.015 194.301 242.982C191.639 248.123 189.711 249.316 184.02 249.316C174.657 249.316 172.545 252.346 179.246 256.018C181.174 257.211 185.03 260.883 187.783 264.279C191.364 268.777 193.291 270.43 194.944 270.43C198.983 270.43 203.848 263.453 207.887 251.611C211.1 242.431 217.801 220.125 220.923 208.558C222.482 202.499 224.41 196.717 225.054 195.707L225.174 195.526L225.175 195.524C226.106 194.128 226.523 193.503 226.523 192.877C226.523 192.369 226.248 191.86 225.748 190.937L225.696 190.842C224.318 188.271 212.293 182.304 208.622 182.304C207.061 182.396 203.94 183.314 201.645 184.508Z" fill="white"/>
<path d="M127.014 289.431C126.738 289.798 125.637 292.645 124.627 295.673C123.526 298.703 121.139 303.66 119.212 306.69C116.09 311.83 115.815 312.748 115.815 319.174C115.815 327.711 117.284 330.097 122.791 330.097C126.83 330.097 130.319 326.701 131.879 321.102C133.256 316.144 133.899 302.099 133.072 295.215C132.43 289.615 132.155 289.248 129.86 288.973C128.574 288.789 127.29 288.973 127.014 289.431Z" fill="white"/>
<path d="M243.229 287.871C225.512 272.266 223.952 270.43 226.155 268.318C227.165 267.216 229.918 267.583 241.393 270.522C254.336 273.734 256.172 275.019 260.578 283.923C262.965 288.789 263.24 290.166 262.598 292.736C261.772 295.307 261.313 295.674 258.008 295.949C254.061 296.224 250.389 294.205 243.229 287.871Z" fill="white"/>
<path fill-rule="evenodd" clip-rule="evenodd" d="M345.308 194.605C342.737 190.842 342.553 189.556 344.114 187.996C346.592 185.517 358.709 187.812 363.575 191.576C367.155 194.421 367.706 196.533 366.329 202.867C364.217 212.597 364.493 212.873 371.653 208.191C374.774 206.171 375.325 206.08 380.098 207.09C382.852 207.64 386.157 208.926 387.442 209.935L389.646 211.68L389.553 207.365L389.369 202.959L392.766 203.051C399.651 203.234 407.27 210.578 407.27 217.004C407.27 219.391 405.893 221.594 400.477 228.019C396.714 232.426 393.868 236.189 394.052 236.373C395.061 237.383 406.169 234.17 408.556 232.15C410.942 230.131 411.86 229.947 415.623 230.406C427.007 231.967 433.891 235.639 433.891 240.137C433.891 244.543 431.413 245.369 416.542 246.012C409.198 246.287 398.825 247.021 393.408 247.572L383.587 248.674L372.387 260.424C366.237 266.941 361.372 272.266 361.647 272.266C361.831 272.266 367.247 270.797 373.673 269.052C380.19 267.308 386.708 265.84 388.36 265.84C389.921 265.84 393.684 267.216 396.714 268.869C401.946 271.714 402.222 271.99 401.946 275.019C401.854 276.764 401.303 288.514 400.753 301.182C399.743 325.691 398.733 331.75 394.877 336.34C392.858 338.726 392.216 339.002 387.81 338.451C387.442 338.359 385.239 335.881 382.852 332.851C378.629 327.436 378.446 327.344 374.04 327.344C365.962 327.344 352.192 329.363 352.192 330.556C352.192 333.678 345.399 335.147 342.461 332.759C341.635 332.117 340.075 329.731 338.974 327.527C337.046 323.672 336.954 323.121 338.055 314.676C340.075 297.877 340.533 289.248 339.157 290.35C315.014 310.086 281.508 326.609 281.508 318.715C281.508 317.98 284.721 315.41 288.669 313.024C299.133 306.506 312.353 296.959 323.001 288.054C331.996 280.619 359.995 253.171 359.261 252.437C358.801 251.979 337.596 256.385 319.237 260.791C309.965 263.086 301.245 264.922 299.776 264.922C296.288 264.922 287.291 261.525 286.741 259.965C285.455 256.66 288.393 255.742 316.85 250.234L317.926 250.02C320.09 249.59 322.208 249.17 324.25 248.764C336.584 246.315 346.19 244.407 346.96 244.176C348.336 243.717 348.52 242.523 348.52 235.087V226.459L342.369 228.295C332.823 231.14 330.252 231.324 325.112 229.397C321.44 228.019 320.43 227.193 320.246 225.358C319.971 223.154 320.338 222.97 330.804 220.584C336.771 219.207 343.288 217.646 345.216 217.096L348.795 216.086L348.153 207.09C347.694 199.471 347.235 197.451 345.308 194.605ZM377.069 230.681C379.784 226.881 382.348 223.281 383.686 221.403C383.77 221.284 383.85 221.172 383.925 221.067C384.266 220.589 384.498 220.262 384.596 220.125C385.239 219.299 384.78 219.023 382.852 219.115C380.374 219.207 365.043 222.328 364.584 222.878C364.401 223.062 364.126 227.193 363.942 232.15C363.667 240.779 363.759 241.054 365.686 241.054C369.358 241.054 370.46 240.045 377.069 230.681ZM382.301 315.777C383.127 316.236 383.403 312.013 383.403 297.143C383.403 281.629 383.127 277.773 382.21 277.773C381.475 277.773 380.741 277.957 380.557 278.141C380.374 278.324 375.049 279.609 368.715 280.894C362.381 282.18 356.323 283.465 355.222 283.74C353.294 284.199 353.11 284.75 353.11 290.166V296.041L357.517 294.573C359.903 293.746 363.024 292.277 364.493 291.176C368.899 288.146 378.905 290.166 380.19 294.389C381.475 298.336 378.721 300.171 368.715 302.099C367.406 302.375 364.702 302.96 361.998 303.546C361.589 303.635 361.179 303.724 360.774 303.811L360.673 303.833L360.659 303.836C360.215 303.933 359.777 304.027 359.353 304.119L353.11 305.496V312.748C353.11 313.245 353.107 313.712 353.104 314.151C353.087 316.995 353.077 318.63 353.887 319.368C354.98 320.365 357.57 319.721 363.661 318.207L363.662 318.206C363.676 318.203 363.689 318.2 363.703 318.196C364.006 318.121 364.318 318.044 364.639 317.964C364.65 317.961 364.662 317.958 364.674 317.955C364.7 317.949 364.727 317.942 364.753 317.936C365.056 317.86 365.367 317.784 365.686 317.705C375.876 315.227 380.557 314.676 382.301 315.777Z" fill="white"/>
</g>
<defs>
<clipPath id="clip0_1335_276">
<rect width="547" height="547" fill="white"/>
</clipPath>
</defs>
</svg>
